<svg xmlns="http://www.w3.org/2000/svg" viewBox="0 0 154.8 241.7">
  <defs>
    <style>.a{fill:#fff;stroke:#346586;stroke-miterlimit:10;stroke-width:7px;}</style>
  </defs>
  <title>Racket</title>
  <path class="a" d="M55.4,158.8a8.1,8.1,0,0,1,5.7,8.2l-2.8,51.1a12.7,12.7,0,0,0-.1,2,19.2,19.2,0,1,0,38.4,0,12.7,12.7,0,0,0-.1-2L93.7,167a8.1,8.1,0,0,1,5.7-8.2,73.5,73.5,0,0,0,29.1-18H26.2A74.5,74.5,0,0,0,55.4,158.8Z"/>
  <path class="a" d="M152.4,82.3c0-44.1-33.6-79.9-75-79.9s-75,35.8-75,79.9a82.6,82.6,0,0,0,23.8,58.5H128.5A82.2,82.2,0,0,0,152.4,82.3Z"/>
</svg>